name rise37.2698peak67.6939fall79.5734.mot
datacolumns 19
datarows 32
range 15.71327600000000 15.76495300000000
endheader
time	ground_force1_vx	ground_force1_vy	ground_force1_vz	ground_force1_px	ground_force1_py	ground_force1_pz	ground_force2_vx	ground_force2_vy	ground_force2_vz	ground_force2_px	ground_force2_py	ground_force2_pz	ground_torque1_x	ground_torque1_y	ground_torque1_z	ground_torque2_x	ground_torque2_y	ground_torque2_z	
15.71327600000000	-34.49345800000000	794.82579999999996	54.43771400000000	0.13692400000000	0.00000000000000	0.10033700000000	-8.67093900000000	44.94886200000000	6.56306400000000	0.34104900000000	0.00000000000000	-0.07821800000000	0.00000000000000	21.21587900000000	0.00000000000000	0.00000000000000	3.40782400000000	0.00000000000000	
15.71496300000000	-34.92848500000000	792.48444400000005	54.28638900000000	0.13619700000000	0.00000000000000	0.10024100000000	-9.42196000000000	51.15560800000000	7.29382500000000	0.34685400000000	0.00000000000000	-0.07828500000000	0.00000000000000	21.12819500000000	0.00000000000000	0.00000000000000	3.87587100000000	0.00000000000000	
15.71661800000000	-35.37714400000000	790.04494499999998	54.11400500000000	0.13548400000000	0.00000000000000	0.10014100000000	-10.03562900000000	57.24033600000000	7.95942800000000	0.35228000000000	0.00000000000000	-0.07835100000000	0.00000000000000	21.04007200000000	0.00000000000000	0.00000000000000	4.32592700000000	0.00000000000000	
15.71827300000000	-35.83956000000000	787.50637200000006	53.92032100000000	0.13478300000000	0.00000000000000	0.10003700000000	-10.49895100000000	63.13838300000000	8.54913900000000	0.35735700000000	0.00000000000000	-0.07841600000000	0.00000000000000	20.95155300000000	0.00000000000000	0.00000000000000	4.75043800000000	0.00000000000000	
15.71993800000000	-36.31581500000000	784.86778000000004	53.70513600000000	0.13409400000000	0.00000000000000	0.09992800000000	-10.80669400000000	68.81112299999999	9.05700400000000	0.36211100000000	0.00000000000000	-0.07848300000000	0.00000000000000	20.86267300000000	0.00000000000000	0.00000000000000	5.14408500000000	0.00000000000000	
15.72160400000000	-36.80593600000000	782.12821299999996	53.46829300000000	0.13341700000000	0.00000000000000	0.09981600000000	-10.96073300000000	74.24519200000000	9.48156500000000	0.36656400000000	0.00000000000000	-0.07855200000000	0.00000000000000	20.77345900000000	0.00000000000000	0.00000000000000	5.50380200000000	0.00000000000000	
15.72327700000000	-37.30990100000000	779.28669900000000	53.20967800000000	0.13275200000000	0.00000000000000	0.09970100000000	-10.96892900000000	79.44977500000000	9.82525700000000	0.37073700000000	0.00000000000000	-0.07862600000000	0.00000000000000	20.68392600000000	0.00000000000000	0.00000000000000	5.82861600000000	0.00000000000000	
15.72494100000000	-37.82763500000000	776.34225600000002	52.92922200000000	0.13209700000000	0.00000000000000	0.09958100000000	-10.84371000000000	84.45250400000000	10.09359200000000	0.37464500000000	0.00000000000000	-0.07870400000000	0.00000000000000	20.59408300000000	0.00000000000000	0.00000000000000	6.11932600000000	0.00000000000000	
15.72660800000000	-38.35900500000000	773.29388400000005	52.62690200000000	0.13145200000000	0.00000000000000	0.09945700000000	-10.60051800000000	89.29455299999999	10.29423300000000	0.37830400000000	0.00000000000000	-0.07878700000000	0.00000000000000	20.50393000000000	0.00000000000000	0.00000000000000	6.37809900000000	0.00000000000000	
15.72827500000000	-38.90381800000000	770.14057000000003	52.30273700000000	0.13081600000000	0.00000000000000	0.09933000000000	-10.25628700000000	94.02548299999999	10.43604600000000	0.38172500000000	0.00000000000000	-0.07887700000000	0.00000000000000	20.41345800000000	0.00000000000000	0.00000000000000	6.60801200000000	0.00000000000000	
15.72994100000000	-39.46182600000000	766.88128700000004	51.95679400000000	0.13018900000000	0.00000000000000	0.09920000000000	-9.82805300000000	98.69828699999999	10.52822600000000	0.38492200000000	0.00000000000000	-0.07897300000000	0.00000000000000	20.32264900000000	0.00000000000000	0.00000000000000	6.81260600000000	0.00000000000000	
15.73161600000000	-40.03271400000000	763.51499500000000	51.58918400000000	0.12956800000000	0.00000000000000	0.09906600000000	-9.33180000000000	103.36500300000000	10.57954300000000	0.38790400000000	0.00000000000000	-0.07907600000000	0.00000000000000	20.23147900000000	0.00000000000000	0.00000000000000	6.99546800000000	0.00000000000000	
15.73327300000000	-40.61610700000000	760.04064200000005	51.20006200000000	0.12895300000000	0.00000000000000	0.09892800000000	-8.78157700000000	108.07314000000000	10.59774900000000	0.39068000000000	0.00000000000000	-0.07918600000000	0.00000000000000	20.13991200000000	0.00000000000000	0.00000000000000	7.15989600000000	0.00000000000000	
15.73494400000000	-41.21156200000000	756.45716100000004	50.78963000000000	0.12834400000000	0.00000000000000	0.09878800000000	-8.18892300000000	112.86305400000001	10.58917000000000	0.39325900000000	0.00000000000000	-0.07930500000000	0.00000000000000	20.04790900000000	0.00000000000000	0.00000000000000	7.30863000000000	0.00000000000000	
15.73661900000000	-41.81857100000000	752.76348099999996	50.35813100000000	0.12773800000000	0.00000000000000	0.09864400000000	-7.56257800000000	117.76629800000001	10.55847100000000	0.39564900000000	0.00000000000000	-0.07943100000000	0.00000000000000	19.95542000000000	0.00000000000000	0.00000000000000	7.44368900000000	0.00000000000000	
15.73827900000000	-42.43655700000000	748.95851900000002	49.90585500000000	0.12713400000000	0.00000000000000	0.09849800000000	-6.90844800000000	122.80491100000000	10.50859400000000	0.39785700000000	0.00000000000000	-0.07956400000000	0.00000000000000	19.86239000000000	0.00000000000000	0.00000000000000	7.56628900000000	0.00000000000000	
15.73994300000000	-43.06487500000000	745.04118700000004	49.43313200000000	0.12653200000000	0.00000000000000	0.09834900000000	-6.22980000000000	127.99150700000000	10.44082900000000	0.39989000000000	0.00000000000000	-0.07970600000000	0.00000000000000	19.76875600000000	0.00000000000000	0.00000000000000	7.67683900000000	0.00000000000000	
15.74161800000000	-43.70280900000000	741.01039600000001	48.94033400000000	0.12593000000000	0.00000000000000	0.09819700000000	-5.52760300000000	133.33003900000000	10.35500400000000	0.40175500000000	0.00000000000000	-0.07985600000000	0.00000000000000	19.67445000000000	0.00000000000000	0.00000000000000	7.77501100000000	0.00000000000000	
15.74327100000000	-44.34957300000000	736.86505499999998	48.42787500000000	0.12532600000000	0.00000000000000	0.09804300000000	-4.80098800000000	138.81702999999999	10.24974100000000	0.40345600000000	0.00000000000000	-0.08001300000000	0.00000000000000	19.57939800000000	0.00000000000000	0.00000000000000	7.85984800000000	0.00000000000000	
15.74493800000000	-45.00431000000000	732.60407799999996	47.89620700000000	0.12471900000000	0.00000000000000	0.09788600000000	-4.04775400000000	144.44311500000001	10.12276600000000	0.40500100000000	0.00000000000000	-0.08017900000000	0.00000000000000	19.48351900000000	0.00000000000000	0.00000000000000	7.92991500000000	0.00000000000000	
15.74662200000000	-45.66609100000000	728.22638300000006	47.34582100000000	0.12410900000000	0.00000000000000	0.09772800000000	-3.26488100000000	150.19469699999999	9.97122100000000	0.40639400000000	0.00000000000000	-0.08035200000000	0.00000000000000	19.38672900000000	0.00000000000000	0.00000000000000	7.98345500000000	0.00000000000000	
15.74827500000000	-46.33391700000000	723.73090100000002	46.77724400000000	0.12349300000000	0.00000000000000	0.09756700000000	-2.44900600000000	156.05560500000001	9.79197200000000	0.40764000000000	0.00000000000000	-0.08053300000000	0.00000000000000	19.28893900000000	0.00000000000000	0.00000000000000	8.01855000000000	0.00000000000000	
15.74994000000000	-47.00671600000000	719.11657700000001	46.19103800000000	0.12287000000000	0.00000000000000	0.09740500000000	-1.59684400000000	162.00859900000000	9.58187500000000	0.40874600000000	0.00000000000000	-0.08072100000000	0.00000000000000	19.19005500000000	0.00000000000000	0.00000000000000	8.03327100000000	0.00000000000000	
15.75160900000000	-47.68335000000000	714.38237600000002	45.58779800000000	0.12223900000000	0.00000000000000	0.09724200000000	-0.70551800000000	168.03666500000000	9.33800700000000	0.40971500000000	0.00000000000000	-0.08091600000000	0.00000000000000	19.08997900000000	0.00000000000000	0.00000000000000	8.02580100000000	0.00000000000000	
15.75327500000000	-48.36260700000000	709.52728500000001	44.96815000000000	0.12159800000000	0.00000000000000	0.09707700000000	0.22719600000000	174.12403200000000	9.05783300000000	0.41055200000000	0.00000000000000	-0.08111900000000	0.00000000000000	18.98861200000000	0.00000000000000	0.00000000000000	7.99454000000000	0.00000000000000	
15.75494000000000	-49.04321200000000	704.55032200000005	44.33275100000000	0.12094700000000	0.00000000000000	0.09691100000000	1.20271900000000	180.25689499999999	8.73932500000000	0.41126300000000	0.00000000000000	-0.08132800000000	0.00000000000000	18.88584900000000	0.00000000000000	0.00000000000000	7.93817200000000	0.00000000000000	
15.75660600000000	-49.72382100000000	699.45054200000004	43.68228300000000	0.12028300000000	0.00000000000000	0.09674400000000	2.22160100000000	186.42385400000001	8.38102000000000	0.41185100000000	0.00000000000000	-0.08154300000000	0.00000000000000	18.78158400000000	0.00000000000000	0.00000000000000	7.85571000000000	0.00000000000000	
15.75827800000000	-50.40302800000000	694.22703799999999	43.01745500000000	0.11960700000000	0.00000000000000	0.09657600000000	3.28352700000000	192.61608400000000	7.98204200000000	0.41232200000000	0.00000000000000	-0.08176500000000	0.00000000000000	18.67570800000000	0.00000000000000	0.00000000000000	7.74651000000000	0.00000000000000	
15.75994500000000	-51.07936400000000	688.87895600000002	42.33899700000000	0.11891600000000	0.00000000000000	0.09640800000000	4.38738400000000	198.82728200000000	7.54207000000000	0.41268000000000	0.00000000000000	-0.08199200000000	0.00000000000000	18.56811200000000	0.00000000000000	0.00000000000000	7.61026700000000	0.00000000000000	
15.76161900000000	-51.75130400000000	683.40549299999998	41.64766300000000	0.11820900000000	0.00000000000000	0.09624000000000	5.53136700000000	205.05343999999999	7.06129500000000	0.41292800000000	0.00000000000000	-0.08222500000000	0.00000000000000	18.45868200000000	0.00000000000000	0.00000000000000	7.44698900000000	0.00000000000000	
15.76327600000000	-52.41726400000000	677.80591600000002	40.94422300000000	0.11748600000000	0.00000000000000	0.09607100000000	6.71311400000000	211.29250200000001	6.54033600000000	0.41307300000000	0.00000000000000	-0.08246300000000	0.00000000000000	18.34730400000000	0.00000000000000	0.00000000000000	7.25696200000000	0.00000000000000	
15.76495300000000	-53.07560900000000	672.07956200000001	40.22946400000000	0.11674500000000	0.00000000000000	0.09590300000000	7.92985400000000	217.54393899999999	5.98016900000000	0.41311700000000	0.00000000000000	-0.08270500000000	0.00000000000000	18.23386300000000	0.00000000000000	0.00000000000000	7.04070600000000	0.00000000000000	
